<svg width="735" height="351" viewBox="0 0 735 351" fill="none" xmlns="http://www.w3.org/2000/svg">
<path d="M610.832 143.798C613.443 158.635 631.219 156.895 639.83 146.158C642.788 142.443 644.659 138.172 644.956 133.738C645.466 126.474 638.817 118.755 632.135 120.048C621.346 122.093 608.585 130.973 610.832 143.798ZM595.06 111.266C599.351 125.64 617.215 122.056 624.811 110.511C627.412 106.562 628.859 102.123 628.687 97.7205C628.434 90.482 620.875 83.5885 614.206 85.5499C603.464 88.6788 591.427 98.8568 595.06 111.266ZM555.842 67.6128C554.419 60.7403 544.687 57.0688 538.091 60.1413C534.085 62.0053 530.801 65.3002 528.477 69.4553C521.806 81.5787 527.092 99.2469 541.945 96.5157C554.69 94.2131 558.095 78.7261 555.842 67.6128ZM577.386 99.651C589.882 98.5338 594.897 83.4646 594.011 72.1896C593.433 65.2125 584.546 60.6208 577.882 63.077C573.857 64.5395 570.337 67.5625 567.643 71.4701C559.876 82.8643 562.894 100.985 577.386 99.651ZM593.562 162.877C600.385 150.476 594.06 135.462 587.655 126.879C578.093 114.092 560.071 107.538 542.671 113.457C535.674 115.84 524.095 120.825 521.587 129.095C518.18 140.464 533.098 146.412 540.673 148.88C549.712 151.749 557.189 153.761 562.736 161.727L563.322 162.58C570.6 172.397 583.886 180.52 593.562 162.877ZM547.608 225.786C545.173 219.416 535.12 217.864 529.211 222.113C525.633 224.694 522.967 228.548 521.386 233.012C516.785 245.976 524.669 262.008 538.666 256.399C550.737 251.544 551.548 236.008 547.608 225.786ZM574.611 252.644C587.07 249.2 589.38 233.612 586.386 222.819C584.545 216.14 574.703 213.335 568.391 216.921C564.58 219.096 561.572 222.677 559.593 226.972C553.783 239.5 560.136 256.586 574.611 252.644ZM645.26 287.177C647.558 282.995 648.632 278.495 648.125 274.1C647.257 266.877 639.005 260.545 632.408 262.963C621.785 266.896 610.401 277.942 615.176 290.012C620.677 304.06 638.497 299.232 645.26 287.177ZM593.806 261.533C600.302 274.544 617.307 267.561 622.891 254.936C624.804 250.6 625.518 246 624.647 241.799C623.212 234.859 614.63 229.711 608.393 232.911C598.348 238.125 588.172 250.317 593.806 261.533ZM600.367 298.293C596.235 280.405 581.133 268.544 565.247 267.151C554.568 266.23 538.502 268.764 531.546 281.11C521.658 298.642 535.567 305.64 547.73 306.63L548.785 306.689C558.456 307.218 564.12 312.498 571.305 318.676C577.387 323.817 590.339 333.365 598.167 324.459C603.917 317.974 602.024 305.491 600.367 298.293Z" fill="#F7EEE4"/>
<path d="M111.753 78.0201C124.25 86.4334 135.329 72.4239 133.571 58.7736C132.947 54.0659 131.17 49.7553 128.183 46.4656C123.305 41.0584 113.133 40.4912 109.428 46.2009C103.415 55.3893 100.958 70.7412 111.753 78.0201ZM77.3815 66.8087C90.7104 73.6906 100.523 58.3387 97.4788 44.8586C96.439 40.2454 94.2459 36.1239 90.9562 33.1934C85.5679 28.3534 75.3585 29.0151 72.1445 35.1786C66.9453 45.0854 65.9243 60.8154 77.3815 66.8087ZM18.7343 64.7668C12.7977 61.0234 3.40134 65.4853 1.03806 72.3671C-0.398812 76.5454 -0.304281 81.1964 1.07588 85.7528C5.17853 98.9682 21.5702 107.419 29.9079 94.8278C37.0923 84.0512 28.3009 70.8546 18.7343 64.7668ZM56.7548 71.4786C64.6198 61.704 57.2463 47.6378 48.5117 40.4534C43.0856 36.0293 33.6135 39.2434 30.7587 45.7472C29.0193 49.6607 28.7546 54.2928 29.6999 58.9437C32.517 72.4428 47.6609 82.8412 56.7548 71.4786ZM113.511 103.695C109.314 90.1768 94.1135 84.3159 83.4882 82.9735C67.6448 80.9884 50.4212 89.4206 42.6129 106.058C39.4745 112.751 35.0315 124.548 39.2476 132.092C45.0707 142.434 59.7042 135.817 66.7373 132.073C75.0749 127.554 81.711 123.565 91.2965 125.097L92.3174 125.267C104.436 126.836 119.505 122.904 113.511 103.695ZM126.935 180.435C120.658 177.769 112.566 183.933 111.526 191.136C110.902 195.504 111.829 200.098 113.946 204.333C120.091 216.641 137.106 222.086 142.778 208.114C147.656 196.052 137.031 184.689 126.935 180.435ZM165.012 179.622C171.175 168.26 161.552 155.782 151.702 150.45C145.614 147.141 136.766 152.284 134.97 159.317C133.892 163.571 134.384 168.222 136.104 172.627C141.096 185.502 157.809 192.781 165.012 179.622ZM238.898 152.7C237.48 148.143 234.984 144.249 231.467 141.564C225.663 137.178 215.378 138.728 212.542 145.156C208.005 155.536 208.062 171.398 220.067 176.333C234.001 182.118 242.887 165.934 238.898 152.7ZM184.731 171.965C198.608 176.314 205.377 159.222 200.159 146.442C198.363 142.056 195.546 138.35 191.916 136.062C185.922 132.281 176.261 134.89 174.238 141.602C171.024 152.454 172.745 168.241 184.731 171.965ZM215.756 192.743C200.007 183.309 180.988 185.956 168.963 196.43C160.89 203.482 151.57 216.811 155.634 230.386C161.401 249.67 176.091 244.509 185.242 236.436L186.017 235.717C193.107 229.119 200.839 228.703 210.274 227.814C218.195 227.001 234.058 224.298 233.074 212.481C232.394 203.841 222.09 196.543 215.756 192.743Z" fill="#F7EEE4"/>
<path d="M501.419 37.7687C499.777 35.9705 497.707 34.5206 495.359 33.5241C493.01 32.5275 490.443 32.0095 487.842 32.0075L264.989 31.4971L260.553 8.78836C260.08 6.36946 258.666 4.17603 256.559 2.59335C254.452 1.01068 251.787 0.13997 249.033 0.134177L202.17 0.0268355C199.063 0.0197183 196.081 1.11304 193.879 3.06627C191.677 5.0195 190.437 7.67265 190.431 10.4421C190.424 13.2115 191.653 15.8703 193.845 17.8336C196.038 19.7969 199.015 20.9038 202.122 20.9109L239.158 20.9958L272.205 189.96C272.678 192.378 274.092 194.572 276.199 196.155C278.306 197.737 280.97 198.608 283.725 198.614L471.175 199.043C474.282 199.05 477.264 197.957 479.466 196.004C481.668 194.05 482.908 191.397 482.914 188.628C482.921 185.859 481.692 183.2 479.5 181.236C477.307 179.273 474.33 178.166 471.223 178.159L293.599 177.752L289.517 156.859L466.467 157.264C470.53 157.269 474.469 156.022 477.618 153.735C480.767 151.448 482.932 148.261 483.747 144.714L505.051 50.784C505.564 48.5108 505.504 46.164 504.876 43.9132C504.248 41.6625 503.068 39.5638 501.419 37.7687Z" fill="#41403E"/>
</svg>
